<mxfile host="app.diagrams.net" modified="2024-07-20T05:52:18.774Z" agent="Mozilla/5.0 (Windows NT 10.0; Win64; x64) AppleWebKit/537.36 (KHTML, like Gecko) Chrome/126.0.0.0 Safari/537.36 Edg/126.0.0.0" etag="HmiXXLq3RIUEspwvYUPr" version="24.7.2" type="github">
  <diagram name="第 1 页" id="FcYuLk7M3eU0l6T_arur">
    <mxGraphModel dx="1005" dy="684" grid="1" gridSize="10" guides="1" tooltips="1" connect="1" arrows="1" fold="1" page="1" pageScale="1" pageWidth="827" pageHeight="1169" math="0" shadow="0">
      <root>
        <mxCell id="0" />
        <mxCell id="1" parent="0" />
        <mxCell id="2OoA-qGZE4qfHTZQGie5-5" style="edgeStyle=orthogonalEdgeStyle;rounded=0;orthogonalLoop=1;jettySize=auto;html=1;exitX=0.5;exitY=1;exitDx=0;exitDy=0;entryX=0.5;entryY=0;entryDx=0;entryDy=0;fontFamily=宋体;fontSize=18;" edge="1" parent="1" source="2OoA-qGZE4qfHTZQGie5-1" target="2OoA-qGZE4qfHTZQGie5-2">
          <mxGeometry relative="1" as="geometry" />
        </mxCell>
        <mxCell id="2OoA-qGZE4qfHTZQGie5-6" style="edgeStyle=orthogonalEdgeStyle;rounded=0;orthogonalLoop=1;jettySize=auto;html=1;exitX=0.5;exitY=1;exitDx=0;exitDy=0;entryX=0.5;entryY=0;entryDx=0;entryDy=0;fontFamily=宋体;fontSize=18;" edge="1" parent="1" source="2OoA-qGZE4qfHTZQGie5-1" target="2OoA-qGZE4qfHTZQGie5-3">
          <mxGeometry relative="1" as="geometry" />
        </mxCell>
        <mxCell id="2OoA-qGZE4qfHTZQGie5-1" value="&lt;span lang=&quot;EN-US&quot; style=&quot;font-size: 18px;&quot;&gt;&lt;font style=&quot;font-size: 18px;&quot;&gt;基于Vue+Springboot的住房租借管理系统设计&lt;/font&gt;&lt;/span&gt;" style="rounded=0;whiteSpace=wrap;html=1;fontFamily=宋体;fontSize=18;" vertex="1" parent="1">
          <mxGeometry x="280" y="110" width="400" height="60" as="geometry" />
        </mxCell>
        <mxCell id="2OoA-qGZE4qfHTZQGie5-15" style="edgeStyle=orthogonalEdgeStyle;rounded=0;orthogonalLoop=1;jettySize=auto;html=1;exitX=0.5;exitY=1;exitDx=0;exitDy=0;entryX=0.5;entryY=0;entryDx=0;entryDy=0;" edge="1" parent="1" source="2OoA-qGZE4qfHTZQGie5-2" target="2OoA-qGZE4qfHTZQGie5-7">
          <mxGeometry relative="1" as="geometry" />
        </mxCell>
        <mxCell id="2OoA-qGZE4qfHTZQGie5-16" style="edgeStyle=orthogonalEdgeStyle;rounded=0;orthogonalLoop=1;jettySize=auto;html=1;exitX=0.5;exitY=1;exitDx=0;exitDy=0;entryX=0.5;entryY=0;entryDx=0;entryDy=0;" edge="1" parent="1" source="2OoA-qGZE4qfHTZQGie5-2" target="2OoA-qGZE4qfHTZQGie5-8">
          <mxGeometry relative="1" as="geometry" />
        </mxCell>
        <mxCell id="2OoA-qGZE4qfHTZQGie5-17" style="edgeStyle=orthogonalEdgeStyle;rounded=0;orthogonalLoop=1;jettySize=auto;html=1;exitX=0.5;exitY=1;exitDx=0;exitDy=0;entryX=0.5;entryY=0;entryDx=0;entryDy=0;" edge="1" parent="1" source="2OoA-qGZE4qfHTZQGie5-2" target="2OoA-qGZE4qfHTZQGie5-10">
          <mxGeometry relative="1" as="geometry" />
        </mxCell>
        <mxCell id="2OoA-qGZE4qfHTZQGie5-18" style="edgeStyle=orthogonalEdgeStyle;rounded=0;orthogonalLoop=1;jettySize=auto;html=1;exitX=0.5;exitY=1;exitDx=0;exitDy=0;entryX=0.5;entryY=0;entryDx=0;entryDy=0;" edge="1" parent="1" source="2OoA-qGZE4qfHTZQGie5-2" target="2OoA-qGZE4qfHTZQGie5-13">
          <mxGeometry relative="1" as="geometry" />
        </mxCell>
        <mxCell id="2OoA-qGZE4qfHTZQGie5-19" style="edgeStyle=orthogonalEdgeStyle;rounded=0;orthogonalLoop=1;jettySize=auto;html=1;exitX=0.5;exitY=1;exitDx=0;exitDy=0;entryX=0.5;entryY=0;entryDx=0;entryDy=0;" edge="1" parent="1" source="2OoA-qGZE4qfHTZQGie5-2" target="2OoA-qGZE4qfHTZQGie5-14">
          <mxGeometry relative="1" as="geometry" />
        </mxCell>
        <mxCell id="2OoA-qGZE4qfHTZQGie5-2" value="普通用户" style="rounded=0;whiteSpace=wrap;html=1;fontFamily=宋体;fontSize=18;" vertex="1" parent="1">
          <mxGeometry x="170" y="320" width="120" height="60" as="geometry" />
        </mxCell>
        <mxCell id="2OoA-qGZE4qfHTZQGie5-25" style="edgeStyle=orthogonalEdgeStyle;rounded=0;orthogonalLoop=1;jettySize=auto;html=1;exitX=0.5;exitY=1;exitDx=0;exitDy=0;entryX=0.5;entryY=0;entryDx=0;entryDy=0;" edge="1" parent="1" source="2OoA-qGZE4qfHTZQGie5-3" target="2OoA-qGZE4qfHTZQGie5-11">
          <mxGeometry relative="1" as="geometry" />
        </mxCell>
        <mxCell id="2OoA-qGZE4qfHTZQGie5-26" style="edgeStyle=orthogonalEdgeStyle;rounded=0;orthogonalLoop=1;jettySize=auto;html=1;exitX=0.5;exitY=1;exitDx=0;exitDy=0;entryX=0.5;entryY=0;entryDx=0;entryDy=0;" edge="1" parent="1" source="2OoA-qGZE4qfHTZQGie5-3" target="2OoA-qGZE4qfHTZQGie5-12">
          <mxGeometry relative="1" as="geometry" />
        </mxCell>
        <mxCell id="2OoA-qGZE4qfHTZQGie5-27" style="edgeStyle=orthogonalEdgeStyle;rounded=0;orthogonalLoop=1;jettySize=auto;html=1;exitX=0.5;exitY=1;exitDx=0;exitDy=0;entryX=0.5;entryY=0;entryDx=0;entryDy=0;" edge="1" parent="1" source="2OoA-qGZE4qfHTZQGie5-3" target="2OoA-qGZE4qfHTZQGie5-9">
          <mxGeometry relative="1" as="geometry" />
        </mxCell>
        <mxCell id="2OoA-qGZE4qfHTZQGie5-28" style="edgeStyle=orthogonalEdgeStyle;rounded=0;orthogonalLoop=1;jettySize=auto;html=1;exitX=0.5;exitY=1;exitDx=0;exitDy=0;entryX=0.5;entryY=0;entryDx=0;entryDy=0;" edge="1" parent="1" source="2OoA-qGZE4qfHTZQGie5-3" target="2OoA-qGZE4qfHTZQGie5-21">
          <mxGeometry relative="1" as="geometry" />
        </mxCell>
        <mxCell id="2OoA-qGZE4qfHTZQGie5-29" style="edgeStyle=orthogonalEdgeStyle;rounded=0;orthogonalLoop=1;jettySize=auto;html=1;exitX=0.5;exitY=1;exitDx=0;exitDy=0;" edge="1" parent="1" source="2OoA-qGZE4qfHTZQGie5-3" target="2OoA-qGZE4qfHTZQGie5-22">
          <mxGeometry relative="1" as="geometry" />
        </mxCell>
        <mxCell id="2OoA-qGZE4qfHTZQGie5-30" style="edgeStyle=orthogonalEdgeStyle;rounded=0;orthogonalLoop=1;jettySize=auto;html=1;exitX=0.5;exitY=1;exitDx=0;exitDy=0;entryX=0.5;entryY=0;entryDx=0;entryDy=0;" edge="1" parent="1" source="2OoA-qGZE4qfHTZQGie5-3" target="2OoA-qGZE4qfHTZQGie5-24">
          <mxGeometry relative="1" as="geometry" />
        </mxCell>
        <mxCell id="2OoA-qGZE4qfHTZQGie5-31" style="edgeStyle=orthogonalEdgeStyle;rounded=0;orthogonalLoop=1;jettySize=auto;html=1;exitX=0.5;exitY=1;exitDx=0;exitDy=0;entryX=0.5;entryY=0;entryDx=0;entryDy=0;" edge="1" parent="1" source="2OoA-qGZE4qfHTZQGie5-3" target="2OoA-qGZE4qfHTZQGie5-23">
          <mxGeometry relative="1" as="geometry" />
        </mxCell>
        <mxCell id="2OoA-qGZE4qfHTZQGie5-32" style="edgeStyle=orthogonalEdgeStyle;rounded=0;orthogonalLoop=1;jettySize=auto;html=1;exitX=0.5;exitY=1;exitDx=0;exitDy=0;" edge="1" parent="1" source="2OoA-qGZE4qfHTZQGie5-3" target="2OoA-qGZE4qfHTZQGie5-20">
          <mxGeometry relative="1" as="geometry" />
        </mxCell>
        <mxCell id="2OoA-qGZE4qfHTZQGie5-3" value="管理员" style="rounded=0;whiteSpace=wrap;html=1;fontSize=18;fontFamily=宋体;" vertex="1" parent="1">
          <mxGeometry x="650" y="320" width="120" height="60" as="geometry" />
        </mxCell>
        <mxCell id="2OoA-qGZE4qfHTZQGie5-7" value="房源检索" style="rounded=0;whiteSpace=wrap;html=1;textDirection=vertical-rl;fontFamily=宋体;fontSize=18;" vertex="1" parent="1">
          <mxGeometry x="70" y="460" width="50" height="120" as="geometry" />
        </mxCell>
        <mxCell id="2OoA-qGZE4qfHTZQGie5-8" value="发起预约" style="rounded=0;whiteSpace=wrap;html=1;textDirection=vertical-rl;fontFamily=宋体;fontSize=18;" vertex="1" parent="1">
          <mxGeometry x="140" y="460" width="50" height="120" as="geometry" />
        </mxCell>
        <mxCell id="2OoA-qGZE4qfHTZQGie5-9" value="后台公告管理" style="rounded=0;whiteSpace=wrap;html=1;textDirection=vertical-rl;fontFamily=宋体;fontSize=18;" vertex="1" parent="1">
          <mxGeometry x="580" y="460" width="50" height="120" as="geometry" />
        </mxCell>
        <mxCell id="2OoA-qGZE4qfHTZQGie5-10" value="修改租约状态" style="rounded=0;whiteSpace=wrap;html=1;textDirection=vertical-rl;fontFamily=宋体;fontSize=18;" vertex="1" parent="1">
          <mxGeometry x="205" y="460" width="50" height="120" as="geometry" />
        </mxCell>
        <mxCell id="2OoA-qGZE4qfHTZQGie5-11" value="公寓管理" style="rounded=0;whiteSpace=wrap;html=1;textDirection=vertical-rl;fontFamily=宋体;fontSize=18;" vertex="1" parent="1">
          <mxGeometry x="440" y="460" width="50" height="120" as="geometry" />
        </mxCell>
        <mxCell id="2OoA-qGZE4qfHTZQGie5-12" value="房间管理" style="rounded=0;whiteSpace=wrap;html=1;textDirection=vertical-rl;fontFamily=宋体;fontSize=18;" vertex="1" parent="1">
          <mxGeometry x="510" y="460" width="50" height="120" as="geometry" />
        </mxCell>
        <mxCell id="2OoA-qGZE4qfHTZQGie5-13" value="查看浏览历史" style="rounded=0;whiteSpace=wrap;html=1;textDirection=vertical-rl;fontFamily=宋体;fontSize=18;" vertex="1" parent="1">
          <mxGeometry x="270" y="460" width="50" height="120" as="geometry" />
        </mxCell>
        <mxCell id="2OoA-qGZE4qfHTZQGie5-14" value="查看朋友圈" style="rounded=0;whiteSpace=wrap;html=1;textDirection=vertical-rl;fontFamily=宋体;fontSize=18;" vertex="1" parent="1">
          <mxGeometry x="340" y="460" width="50" height="120" as="geometry" />
        </mxCell>
        <mxCell id="2OoA-qGZE4qfHTZQGie5-20" value="统计分析" style="rounded=0;whiteSpace=wrap;html=1;textDirection=vertical-rl;fontFamily=宋体;fontSize=18;" vertex="1" parent="1">
          <mxGeometry x="930" y="460" width="50" height="120" as="geometry" />
        </mxCell>
        <mxCell id="2OoA-qGZE4qfHTZQGie5-21" value="预约管理" style="rounded=0;whiteSpace=wrap;html=1;textDirection=vertical-rl;fontFamily=宋体;fontSize=18;" vertex="1" parent="1">
          <mxGeometry x="650" y="460" width="50" height="120" as="geometry" />
        </mxCell>
        <mxCell id="2OoA-qGZE4qfHTZQGie5-22" value="属性管理" style="rounded=0;whiteSpace=wrap;html=1;textDirection=vertical-rl;fontFamily=宋体;fontSize=18;" vertex="1" parent="1">
          <mxGeometry x="720" y="460" width="50" height="120" as="geometry" />
        </mxCell>
        <mxCell id="2OoA-qGZE4qfHTZQGie5-23" value="用户管理" style="rounded=0;whiteSpace=wrap;html=1;textDirection=vertical-rl;fontFamily=宋体;fontSize=18;" vertex="1" parent="1">
          <mxGeometry x="860" y="460" width="50" height="120" as="geometry" />
        </mxCell>
        <mxCell id="2OoA-qGZE4qfHTZQGie5-24" value="租约管理" style="rounded=0;whiteSpace=wrap;html=1;textDirection=vertical-rl;fontFamily=宋体;fontSize=18;" vertex="1" parent="1">
          <mxGeometry x="790" y="460" width="50" height="120" as="geometry" />
        </mxCell>
      </root>
    </mxGraphModel>
  </diagram>
</mxfile>
